<?xml version="1.0" standalone="no"?><!DOCTYPE svg PUBLIC "-//W3C//DTD SVG 1.1//EN" "http://www.w3.org/Graphics/SVG/1.1/DTD/svg11.dtd"><svg t="1540977988673" class="icon" style="" viewBox="0 0 1024 1024" version="1.1" xmlns="http://www.w3.org/2000/svg" p-id="6045" xmlns:xlink="http://www.w3.org/1999/xlink" width="200" height="200"><defs><style type="text/css"></style></defs><path d="M169.334 378.416c-10.214-19.213-6.442-47.315 17.554-61.088l302.426-163.58a45.658 45.658 0 0 1 22.688-6.05 45.654 45.654 0 0 1 22.687 6.049l302.426 163.581c7.536 4.325 13.611 10.547 17.57 17.992 5.455 10.259 6.775 22.64 3.623 33.969-3.316 11.915-11.23 21.754-22.287 27.703L533.595 549.697a45.74 45.74 0 0 1-21.594 5.44 45.718 45.718 0 0 1-21.594-5.439L187.981 396.993c-8.036-4.324-14.484-10.747-18.647-18.577 0 0.001 0 0.001 0 0z" p-id="6046"></path><path d="M168.057 549.26c-5.084-9.563-5.061-20.956 0.062-30.477 8.433-15.673 28.043-21.563 43.715-13.13l291.772 145.066a18.196 18.196 0 0 0 17.327-0.015L812.18 504.536c7.598-4.088 16.327-4.971 24.584-2.491 8.256 2.48 15.052 8.027 19.136 15.619l0.077 0.143c8.313 15.634 2.388 35.18-13.207 43.572l-291.255 146.17c-12.068 6.493-25.898 11.115-39.515 11.114-13.619 0-26.939-4.622-39-11.111L181.227 562.486a32.106 32.106 0 0 1-13.17-13.226z" p-id="6047"></path><path d="M168.057 713.587c-5.084-9.563-5.061-20.955 0.062-30.476 4.085-7.593 10.882-13.14 19.137-15.62 8.256-2.48 16.985-1.596 24.578 2.49l291.773 145.067a18.192 18.192 0 0 0 17.324-0.014L812.18 668.865c15.679-8.435 35.289-2.545 43.72 13.126l0.077 0.143c8.313 15.634 2.388 35.18-13.208 43.572L551.514 871.877c-12.068 6.493-25.643 11.858-39.261 11.857-13.618 0.001-27.192-5.364-39.254-11.854L181.227 726.814a32.102 32.102 0 0 1-13.17-13.227z" p-id="6048"></path></svg>