<?xml version="1.0" standalone="no"?><!DOCTYPE svg PUBLIC "-//W3C//DTD SVG 1.1//EN" "http://www.w3.org/Graphics/SVG/1.1/DTD/svg11.dtd"><svg t="1542444356703" class="icon" style="" viewBox="0 0 1025 1024" version="1.1" xmlns="http://www.w3.org/2000/svg" p-id="2631" xmlns:xlink="http://www.w3.org/1999/xlink" width="200.1953125" height="200"><defs><style type="text/css"></style></defs><path d="M682.741127 382.294046l274.20414-273.635251v154.737606a22.75553 22.75553 0 0 0 22.75553 23.893306h16.497759a22.186642 22.186642 0 0 0 23.893307-21.048865V23.894445a21.617754 21.617754 0 0 0-5.688882-16.49776 22.186642 22.186642 0 0 0-14.222207-7.395547h-240.070844a24.462195 24.462195 0 0 0-23.893307 23.893307v16.497759a26.16886 26.16886 0 0 0 26.737748 23.893307H910.29643l-270.790811 273.066363a31.857742 31.857742 0 0 0 0 44.942172 31.857742 31.857742 0 0 0 44.942173 0z m-341.332954 257.706381L64.359592 910.222349v-154.168718a22.75553 22.75553 0 0 0-22.755531-23.893307H25.106302a22.186642 22.186642 0 0 0-23.893307 21.048866v242.915285a21.617754 21.617754 0 0 0 5.688883 16.49776 22.186642 22.186642 0 0 0 15.359983 11.377765H261.763817a24.462195 24.462195 0 0 0 23.893307-23.893307v-16.497759a26.16886 26.16886 0 0 0-26.737748-23.893307H110.439541L383.505904 682.667046a31.857742 31.857742 0 0 0 0-44.942172 31.288854 31.288854 0 0 0-42.097731 2.275553z m682.665908 346.452948v-230.968632a22.186642 22.186642 0 0 0-23.893307-21.048866h-16.497759a23.324419 23.324419 0 0 0-22.755531 23.893307v154.737606L682.741127 640.000427a31.857742 31.857742 0 0 0-44.942172 44.942172L910.29643 957.440074h-147.910947a26.16886 26.16886 0 0 0-26.737748 23.893307v16.497759a25.031083 25.031083 0 0 0 23.893307 23.893307h240.070844a21.048866 21.048866 0 0 0 22.186642-23.324419v-12.515541zM113.85287 64.854399h147.342059a26.16886 26.16886 0 0 0 26.737748-24.462195V23.894445A25.031083 25.031083 0 0 0 264.03937 0.001138H22.261861A21.617754 21.617754 0 0 0 5.764101 7.396685a21.617754 21.617754 0 0 0-5.688882 16.49776v242.915285a22.186642 22.186642 0 0 0 23.893306 21.048866h18.204425a22.75553 22.75553 0 0 0 22.75553-23.893307V109.796571L341.408173 382.294046a31.857742 31.857742 0 0 0 44.942172-44.942172z" p-id="2632"></path></svg>